<?xml version="1.0" encoding="UTF-8" standalone="no"?>
<svg
   xmlns:dc="http://purl.org/dc/elements/1.1/"
   xmlns:cc="http://creativecommons.org/ns#"
   xmlns:rdf="http://www.w3.org/1999/02/22-rdf-syntax-ns#"
   xmlns:svg="http://www.w3.org/2000/svg"
   xmlns="http://www.w3.org/2000/svg"
   xmlns:sodipodi="http://sodipodi.sourceforge.net/DTD/sodipodi-0.dtd"
   xmlns:inkscape="http://www.inkscape.org/namespaces/inkscape"
   version="1.1"
   id="svg2"
   xml:space="preserve"
   width="3864.6267"
   height="755.90668"
   viewBox="0 0 3864.6267 755.90668"
   sodipodi:docname="xbeauty Logotype black RGB.eps"><metadata
     id="metadata8"><rdf:RDF><cc:Work
         rdf:about=""><dc:format>image/svg+xml</dc:format><dc:type
           rdf:resource="http://purl.org/dc/dcmitype/StillImage" /></cc:Work></rdf:RDF></metadata><defs
     id="defs6" /><sodipodi:namedview
     pagecolor="#ffffff"
     bordercolor="#666666"
     borderopacity="1"
     objecttolerance="10"
     gridtolerance="10"
     guidetolerance="10"
     inkscape:pageopacity="0"
     inkscape:pageshadow="2"
     inkscape:window-width="640"
     inkscape:window-height="480"
     id="namedview4" /><g
     id="g10"
     inkscape:groupmode="layer"
     inkscape:label="ink_ext_XXXXXX"
     transform="matrix(1.3333333,0,0,-1.3333333,0,755.90667)"><g
       id="g12"
       transform="scale(0.1)"><path
         d="M 2587.25,2697.53 3850.36,1014.56 H 2694.5 L 1798,2225.7 C 1336.21,1996.51 1004.39,1527.21 949.746,1014.56 H 0 c 72.9141,800.12 570.711,1539.26 1272.39,1921.22 L 0,4654.74 h 1118.32 l 938.29,-1250.18 c 471.08,240.4 803.15,723.61 845.11,1250.18 h 948.64 C 3791.5,3843.52 3297.35,3087.08 2587.25,2697.53 Z M 20267.6,4655.51 h 975.8 V 1014.56 h -938.2 v 293.48 c -635,-588.958 -1706,-435.001 -2221.7,217.68 -267.5,346.24 -368,722.58 -367.8,1200.86 v 1928.93 h 975.8 c 19,-283.85 -49.5,-2126.48 48.7,-2352.99 64.6,-193.56 205.3,-352 390.3,-412.81 421.4,-152.24 887.5,64.67 1137.1,401.55 z m 4239.8,-2814.58 150.1,-825.61 c -633.4,-167.429 -1469.1,-86.918 -1868.9,450.33 -425,534.38 -226.3,1706.97 -270.2,2364.25 h -729.2 v 825.61 h 729.2 v 1013.78 h 975.7 V 4655.51 h 1013.8 V 3829.9 h -1013.8 c 11.5,-204.94 -30.1,-1499.5 30,-1666.23 102.7,-416.48 646.6,-390.11 983.3,-322.74 z m -8665.2,450.33 c -555.1,-792.26 -1856.3,-486.27 -1838.8,540.39 7.9,1046.54 1242.9,1338.29 1838.8,547.92 z m 37.6,2071.53 C 14674.6,5309.55 12987.4,4322.54 13027.7,2831.67 12987.8,1360.46 14699,349.84 15879.8,1308.04 v -293.48 h 938.2 v 3640.95 h -938.2 z M 28984.7,4655.68 26839.9,0 h -1018.4 l 641.3,1383.27 -1628.7,3272.41 h 1073.3 l 1065.8,-2184.12 983.2,2184.12 z M 10011.8,3287.23 c 156.9,862.23 1452.7,921.26 1582.9,0 z m -866.87,268.73 c -354.15,-939.17 47.29,-2134.81 1028.27,-2480.59 739.3,-290.061 1729.9,-110.538 2247.9,517.88 l -555.4,555.4 c -571.2,-666.23 -1776.8,-542.9 -1898.94,442.84 h 2521.84 c 296.5,2169.15 -2512.59,3031.73 -3343.67,964.47 z M 5698.78,2291.26 v 1088.31 c 593.4,789.79 1831.62,497.66 1838.85,-547.89 17.3,-1026.65 -1283.53,-1332.75 -1838.85,-540.42 z m 0,2101.56 V 5669.29 H 4723.05 V 1014.56 h 938.19 v 293.48 C 6543.93,532.5 8033.48,1056.16 8389.49,2129.89 9024.03,3813.11 7232.8,5479.18 5698.78,4392.82"
         style="fill:#100f0d;fill-opacity:1;fill-rule:nonzero;stroke:none"
         id="path14" /></g></g></svg>
